<mxfile host="app.diagrams.net" modified="2022-11-23T02:39:48.537Z" agent="5.0 (Windows NT 10.0; Win64; x64) AppleWebKit/537.36 (KHTML, like Gecko) Chrome/107.0.0.0 Safari/537.36" etag="cc1P_BxRNbdK842b9Dst" version="20.3.0" type="github">
  <diagram id="9OCMwPdWU3TDPt3jyZn5" name="Página-1">
    <mxGraphModel dx="2620" dy="1845" grid="1" gridSize="10" guides="1" tooltips="1" connect="1" arrows="1" fold="1" page="0" pageScale="1" pageWidth="850" pageHeight="1100" background="#DAD2D8" math="0" shadow="0">
      <root>
        <mxCell id="0" />
        <mxCell id="1" parent="0" />
        <mxCell id="VCaF5FQ0tdgLMfJwGW-g-5" style="edgeStyle=none;curved=1;rounded=0;orthogonalLoop=1;jettySize=auto;html=1;exitX=0.5;exitY=1;exitDx=0;exitDy=0;entryX=0.5;entryY=0;entryDx=0;entryDy=0;strokeColor=#A8201A;fontSize=20;fontColor=#143642;endArrow=open;startSize=14;endSize=14;sourcePerimeterSpacing=8;targetPerimeterSpacing=8;fillColor=#FAE5C7;" edge="1" parent="1" source="VCaF5FQ0tdgLMfJwGW-g-3" target="VCaF5FQ0tdgLMfJwGW-g-4">
          <mxGeometry relative="1" as="geometry" />
        </mxCell>
        <mxCell id="VCaF5FQ0tdgLMfJwGW-g-3" value="&lt;font style=&quot;vertical-align: inherit; font-size: 20px;&quot;&gt;&lt;font style=&quot;vertical-align: inherit; font-size: 20px;&quot;&gt;&lt;font style=&quot;vertical-align: inherit; font-size: 20px;&quot;&gt;&lt;font style=&quot;vertical-align: inherit; font-size: 20px;&quot;&gt;GESTORES DE BASES DE DATOS&lt;/font&gt;&lt;/font&gt;&lt;/font&gt;&lt;/font&gt;" style="rounded=0;whiteSpace=wrap;html=1;hachureGap=4;strokeColor=#0F8B8D;fontColor=#143642;fillColor=#FAE5C7;" vertex="1" parent="1">
          <mxGeometry x="60" y="-770" width="490" height="50" as="geometry" />
        </mxCell>
        <mxCell id="VCaF5FQ0tdgLMfJwGW-g-7" style="edgeStyle=none;curved=1;rounded=0;orthogonalLoop=1;jettySize=auto;html=1;exitX=0.5;exitY=1;exitDx=0;exitDy=0;entryX=0.5;entryY=0;entryDx=0;entryDy=0;strokeColor=#A8201A;fontSize=20;fontColor=#143642;endArrow=open;startSize=14;endSize=14;sourcePerimeterSpacing=8;targetPerimeterSpacing=8;fillColor=#FAE5C7;" edge="1" parent="1" source="VCaF5FQ0tdgLMfJwGW-g-4" target="VCaF5FQ0tdgLMfJwGW-g-6">
          <mxGeometry relative="1" as="geometry" />
        </mxCell>
        <mxCell id="VCaF5FQ0tdgLMfJwGW-g-4" value="&lt;span style=&quot;color: rgb(75, 75, 75); font-family: Lato, sans-serif; font-size: 16px; text-align: justify; background-color: rgb(255, 255, 255);&quot;&gt;&lt;font style=&quot;vertical-align: inherit;&quot;&gt;&lt;font style=&quot;vertical-align: inherit;&quot;&gt;Un&amp;nbsp; &lt;/font&gt;&lt;/font&gt;&lt;/span&gt;&lt;span style=&quot;box-sizing: border-box; font-weight: 700; margin: 0px; padding: 0px; border: 0px; font-variant-numeric: inherit; font-variant-east-asian: inherit; font-stretch: inherit; font-size: 16px; line-height: inherit; font-family: Lato, sans-serif; vertical-align: initial; color: rgb(75, 75, 75); text-align: justify; background-color: rgb(255, 255, 255);&quot;&gt;&lt;font style=&quot;vertical-align: inherit;&quot;&gt;&lt;font style=&quot;vertical-align: inherit;&quot;&gt;Sistema Gestor de Base de Datos &lt;/font&gt;&lt;/font&gt;&lt;/span&gt;&lt;span style=&quot;color: rgb(75, 75, 75); font-family: Lato, sans-serif; font-size: 16px; text-align: justify; background-color: rgb(255, 255, 255);&quot;&gt;&amp;nbsp;&lt;font style=&quot;vertical-align: inherit;&quot;&gt;&lt;font style=&quot;vertical-align: inherit;&quot;&gt;( &lt;/font&gt;&lt;/font&gt;&lt;/span&gt;&lt;span style=&quot;box-sizing: border-box; font-weight: 700; margin: 0px; padding: 0px; border: 0px; font-variant-numeric: inherit; font-variant-east-asian: inherit; font-stretch: inherit; font-size: 16px; line-height: inherit; font-family: Lato, sans-serif; vertical-align: initial; color: rgb(75, 75, 75); text-align: justify; background-color: rgb(255, 255, 255);&quot;&gt;&lt;font style=&quot;vertical-align: inherit;&quot;&gt;&lt;font style=&quot;vertical-align: inherit;&quot;&gt;SGBD &lt;/font&gt;&lt;/font&gt;&lt;/span&gt;&lt;span style=&quot;color: rgb(75, 75, 75); font-family: Lato, sans-serif; font-size: 16px; text-align: justify; background-color: rgb(255, 255, 255);&quot;&gt;&lt;font style=&quot;vertical-align: inherit;&quot;&gt;&lt;font style=&quot;vertical-align: inherit;&quot;&gt;) o DataBase Managenent System ( &lt;/font&gt;&lt;/font&gt;&lt;/span&gt;&lt;span style=&quot;box-sizing: border-box; font-weight: 700; margin: 0px; padding: 0px; border: 0px; font-variant-numeric: inherit; font-variant-east-asian: inherit; font-stretch: inherit; font-size: 16px; line-height: inherit; font-family: Lato, sans-serif; vertical-align: initial; color: rgb(75, 75, 75); text-align: justify; background-color: rgb(255, 255, 255);&quot;&gt;&lt;font style=&quot;vertical-align: inherit;&quot;&gt;&lt;font style=&quot;vertical-align: inherit;&quot;&gt;DBMS &lt;/font&gt;&lt;/font&gt;&lt;/span&gt;&lt;span style=&quot;color: rgb(75, 75, 75); font-family: Lato, sans-serif; font-size: 16px; text-align: justify; background-color: rgb(255, 255, 255);&quot;&gt;&lt;font style=&quot;vertical-align: inherit;&quot;&gt;&lt;font style=&quot;vertical-align: inherit;&quot;&gt;) es un sistema que permite la &lt;/font&gt;&lt;/font&gt;&amp;nbsp;&lt;/span&gt;&lt;span style=&quot;box-sizing: border-box; font-weight: 700; margin: 0px; padding: 0px; border: 0px; font-variant-numeric: inherit; font-variant-east-asian: inherit; font-stretch: inherit; font-size: 16px; line-height: inherit; font-family: Lato, sans-serif; vertical-align: initial; color: rgb(75, 75, 75); text-align: justify; background-color: rgb(255, 255, 255);&quot;&gt;&lt;font style=&quot;vertical-align: inherit;&quot;&gt;&lt;font style=&quot;vertical-align: inherit;&quot;&gt;creación, gestión y administración de bases de datos &lt;/font&gt;&lt;/font&gt;&lt;/span&gt;&lt;span style=&quot;color: rgb(75, 75, 75); font-family: Lato, sans-serif; font-size: 16px; text-align: justify; background-color: rgb(255, 255, 255);&quot;&gt;&lt;font style=&quot;vertical-align: inherit;&quot;&gt;&lt;font style=&quot;vertical-align: inherit;&quot;&gt;, así como la &lt;/font&gt;&lt;/font&gt;&amp;nbsp;&lt;/span&gt;&lt;span style=&quot;box-sizing: border-box; font-weight: 700; margin: 0px; padding: 0px; border: 0px; font-variant-numeric: inherit; font-variant-east-asian: inherit; font-stretch: inherit; font-size: 16px; line-height: inherit; font-family: Lato, sans-serif; vertical-align: initial; color: rgb(75, 75, 75); text-align: justify; background-color: rgb(255, 255, 255);&quot;&gt;&lt;font style=&quot;vertical-align: inherit;&quot;&gt;&lt;font style=&quot;vertical-align: inherit;&quot;&gt;elección y manejo de las estructuras necesarias &lt;/font&gt;&lt;/font&gt;&lt;/span&gt;&lt;span style=&quot;color: rgb(75, 75, 75); font-family: Lato, sans-serif; font-size: 16px; text-align: justify; background-color: rgb(255, 255, 255);&quot;&gt;&amp;nbsp;&lt;font style=&quot;vertical-align: inherit;&quot;&gt;&lt;font style=&quot;vertical-align: inherit;&quot;&gt;para el almacenamiento y búsqueda de información del modo mas eficiente posible.&lt;/font&gt;&lt;/font&gt;&lt;/span&gt;" style="rounded=0;whiteSpace=wrap;html=1;hachureGap=4;strokeColor=#0F8B8D;fontSize=20;fontColor=#143642;fillColor=#FAE5C7;" vertex="1" parent="1">
          <mxGeometry x="-155" y="-670" width="920" height="80" as="geometry" />
        </mxCell>
        <mxCell id="VCaF5FQ0tdgLMfJwGW-g-11" style="edgeStyle=none;curved=1;rounded=0;orthogonalLoop=1;jettySize=auto;html=1;exitX=0.25;exitY=1;exitDx=0;exitDy=0;entryX=0.5;entryY=0;entryDx=0;entryDy=0;strokeColor=#A8201A;fontSize=20;fontColor=#143642;endArrow=open;startSize=14;endSize=14;sourcePerimeterSpacing=8;targetPerimeterSpacing=8;fillColor=#FAE5C7;" edge="1" parent="1" source="VCaF5FQ0tdgLMfJwGW-g-6" target="VCaF5FQ0tdgLMfJwGW-g-10">
          <mxGeometry relative="1" as="geometry" />
        </mxCell>
        <mxCell id="VCaF5FQ0tdgLMfJwGW-g-12" style="edgeStyle=none;curved=1;rounded=0;orthogonalLoop=1;jettySize=auto;html=1;exitX=0.75;exitY=1;exitDx=0;exitDy=0;entryX=0.5;entryY=0;entryDx=0;entryDy=0;strokeColor=#A8201A;fontSize=20;fontColor=#143642;endArrow=open;startSize=14;endSize=14;sourcePerimeterSpacing=8;targetPerimeterSpacing=8;fillColor=#FAE5C7;" edge="1" parent="1" source="VCaF5FQ0tdgLMfJwGW-g-6" target="VCaF5FQ0tdgLMfJwGW-g-9">
          <mxGeometry relative="1" as="geometry" />
        </mxCell>
        <mxCell id="VCaF5FQ0tdgLMfJwGW-g-6" value="&lt;span style=&quot;color: rgb(75, 75, 75); font-family: Lato, sans-serif; font-size: 16px; text-align: justify; background-color: rgb(255, 255, 255);&quot;&gt;&lt;font style=&quot;vertical-align: inherit;&quot;&gt;&lt;font style=&quot;vertical-align: inherit;&quot;&gt;En la actualidad, existen multitud de SGBD y pueden ser clasificados según la forma en que administran los datos en:&lt;/font&gt;&lt;/font&gt;&lt;/span&gt;" style="rounded=0;whiteSpace=wrap;html=1;hachureGap=4;strokeColor=#0F8B8D;fontSize=20;fontColor=#143642;fillColor=#FAE5C7;" vertex="1" parent="1">
          <mxGeometry x="100" y="-550" width="410" height="80" as="geometry" />
        </mxCell>
        <mxCell id="VCaF5FQ0tdgLMfJwGW-g-9" value="&lt;ul style=&quot;box-sizing: border-box; margin: 0px 0px 20px; overflow-wrap: break-word; padding: 0px 0px 0px 1em; border: 0px; font-variant-numeric: inherit; font-variant-east-asian: inherit; font-stretch: inherit; font-size: 16px; line-height: inherit; font-family: Lato, sans-serif; vertical-align: middle; list-style-position: initial; list-style-image: initial; color: rgb(75, 75, 75); background-color: rgb(255, 255, 255);&quot;&gt;&lt;li style=&quot;box-sizing: border-box; margin: 0px; padding: 0px; border: 0px; font: inherit; vertical-align: middle;&quot;&gt;&lt;a style=&quot;box-sizing: border-box; color: rgb(139, 189, 191); background-color: transparent; margin: 0px; padding: 0px; border: 0px; font: inherit; vertical-align: initial; transition: all 0.2s ease 0s;&quot; href=&quot;https://www.inesem.es/revistadigital/informatica-y-tics/los-gestores-de-bases-de-datos-mas-usados/#puntodos&quot;&gt;&lt;span style=&quot;box-sizing: border-box; font-weight: 700; margin: 0px; padding: 0px; border: 0px; font-style: inherit; font-variant: inherit; font-stretch: inherit; font-size: inherit; line-height: inherit; font-family: inherit; vertical-align: initial;&quot;&gt;&lt;font style=&quot;vertical-align: inherit;&quot;&gt;&lt;font style=&quot;vertical-align: inherit;&quot;&gt;No relacionales (NoSQL)&lt;/font&gt;&lt;/font&gt;&lt;/span&gt;&lt;/a&gt;&lt;/li&gt;&lt;/ul&gt;" style="rounded=0;whiteSpace=wrap;html=1;hachureGap=4;strokeColor=#0F8B8D;fontSize=20;fontColor=#143642;fillColor=#FAE5C7;align=center;" vertex="1" parent="1">
          <mxGeometry x="330" y="-440" width="160" height="80" as="geometry" />
        </mxCell>
        <mxCell id="VCaF5FQ0tdgLMfJwGW-g-15" style="edgeStyle=none;curved=1;rounded=0;orthogonalLoop=1;jettySize=auto;html=1;exitX=0.5;exitY=1;exitDx=0;exitDy=0;entryX=0.5;entryY=0;entryDx=0;entryDy=0;strokeColor=#A8201A;fontSize=20;fontColor=#143642;endArrow=open;startSize=14;endSize=14;sourcePerimeterSpacing=8;targetPerimeterSpacing=8;fillColor=#FAE5C7;" edge="1" parent="1" source="VCaF5FQ0tdgLMfJwGW-g-10" target="VCaF5FQ0tdgLMfJwGW-g-13">
          <mxGeometry relative="1" as="geometry" />
        </mxCell>
        <mxCell id="VCaF5FQ0tdgLMfJwGW-g-10" value="&lt;ul style=&quot;box-sizing: border-box; margin: 0px 0px 20px; overflow-wrap: break-word; padding: 0px 0px 0px 1em; border: 0px; font-variant-numeric: inherit; font-variant-east-asian: inherit; font-stretch: inherit; font-size: 16px; line-height: inherit; font-family: Lato, sans-serif; vertical-align: middle; list-style-position: initial; list-style-image: initial; color: rgb(75, 75, 75); background-color: rgb(255, 255, 255);&quot;&gt;&lt;li style=&quot;box-sizing: border-box; margin: 0px; padding: 0px; border: 0px; font: inherit; vertical-align: middle;&quot;&gt;&lt;a style=&quot;box-sizing: border-box; color: rgb(139, 189, 191); background-color: transparent; margin: 0px; padding: 0px; border: 0px; font: inherit; vertical-align: initial; transition: all 0.2s ease 0s;&quot; href=&quot;https://www.inesem.es/revistadigital/informatica-y-tics/los-gestores-de-bases-de-datos-mas-usados/#puntouno&quot;&gt;&lt;span style=&quot;box-sizing: border-box; font-weight: 700; margin: 0px; padding: 0px; border: 0px; font-style: inherit; font-variant: inherit; font-stretch: inherit; font-size: inherit; line-height: inherit; font-family: inherit; vertical-align: initial;&quot;&gt;&lt;font style=&quot;vertical-align: inherit;&quot;&gt;&lt;font style=&quot;vertical-align: inherit;&quot;&gt;Relacionales (SQL)&lt;/font&gt;&lt;/font&gt;&lt;/span&gt;&lt;/a&gt;&lt;/li&gt;&lt;/ul&gt;" style="rounded=0;whiteSpace=wrap;html=1;hachureGap=4;strokeColor=#0F8B8D;fontSize=20;fontColor=#143642;fillColor=#FAE5C7;align=center;" vertex="1" parent="1">
          <mxGeometry x="110" y="-440" width="160" height="80" as="geometry" />
        </mxCell>
        <mxCell id="VCaF5FQ0tdgLMfJwGW-g-17" style="edgeStyle=none;curved=1;rounded=0;orthogonalLoop=1;jettySize=auto;html=1;exitX=0.5;exitY=1;exitDx=0;exitDy=0;entryX=0.5;entryY=0;entryDx=0;entryDy=0;strokeColor=#A8201A;fontSize=20;fontColor=#143642;endArrow=open;startSize=14;endSize=14;sourcePerimeterSpacing=8;targetPerimeterSpacing=8;fillColor=#FAE5C7;" edge="1" parent="1" source="VCaF5FQ0tdgLMfJwGW-g-13" target="VCaF5FQ0tdgLMfJwGW-g-16">
          <mxGeometry relative="1" as="geometry" />
        </mxCell>
        <mxCell id="VCaF5FQ0tdgLMfJwGW-g-13" value="&lt;span style=&quot;color: rgb(75, 75, 75); font-family: Lato, sans-serif; font-size: 16px; background-color: rgb(255, 255, 255);&quot;&gt;&lt;font style=&quot;vertical-align: inherit;&quot;&gt;&lt;font style=&quot;vertical-align: inherit;&quot;&gt;&lt;font style=&quot;vertical-align: inherit;&quot;&gt;&lt;font style=&quot;vertical-align: inherit;&quot;&gt;Este modelo se basa principalmente en establecer&amp;nbsp;  &lt;/font&gt;&lt;/font&gt;&lt;/font&gt;&lt;/font&gt;&lt;/span&gt;&lt;span style=&quot;box-sizing: border-box; font-weight: 700; margin: 0px; padding: 0px; border: 0px; font-variant-numeric: inherit; font-variant-east-asian: inherit; font-stretch: inherit; font-size: 16px; line-height: inherit; font-family: Lato, sans-serif; vertical-align: initial; color: rgb(75, 75, 75); background-color: rgb(255, 255, 255);&quot;&gt;&lt;font style=&quot;vertical-align: inherit;&quot;&gt;&lt;font style=&quot;vertical-align: inherit;&quot;&gt;&lt;font style=&quot;vertical-align: inherit;&quot;&gt;&lt;font style=&quot;vertical-align: inherit;&quot;&gt;relaciones o vínculos &lt;/font&gt;&lt;/font&gt;&lt;/font&gt;&lt;/font&gt;&lt;/span&gt;&lt;font style=&quot;vertical-align: inherit;&quot;&gt;&lt;span style=&quot;color: rgb(75, 75, 75); font-family: Lato, sans-serif; font-size: 16px; background-color: rgb(255, 255, 255);&quot;&gt;&lt;font style=&quot;vertical-align: inherit;&quot;&gt;&lt;font style=&quot;vertical-align: inherit;&quot;&gt;&lt;font style=&quot;vertical-align: inherit;&quot;&gt;entre los datos, imaginando una tabla aparte por cada relación existente con sus propios registros y atributos.&lt;/font&gt;&lt;/font&gt;&lt;/font&gt;&lt;/span&gt;&lt;/font&gt;&lt;span style=&quot;color: rgb(75, 75, 75); font-family: Lato, sans-serif; font-size: 16px; background-color: rgb(255, 255, 255);&quot;&gt;&amp;nbsp;&lt;br&gt;&lt;br&gt;&lt;font style=&quot;vertical-align: inherit;&quot;&gt;&lt;font style=&quot;vertical-align: inherit;&quot;&gt;&lt;font style=&quot;vertical-align: inherit;&quot;&gt;&lt;/font&gt;&lt;/font&gt;&lt;/font&gt;&lt;/span&gt;" style="rounded=0;whiteSpace=wrap;html=1;hachureGap=4;strokeColor=#0F8B8D;fontSize=20;fontColor=#143642;fillColor=#FAE5C7;align=center;" vertex="1" parent="1">
          <mxGeometry x="-50" y="-330" width="700" height="70" as="geometry" />
        </mxCell>
        <mxCell id="VCaF5FQ0tdgLMfJwGW-g-21" style="edgeStyle=none;curved=1;rounded=0;orthogonalLoop=1;jettySize=auto;html=1;exitX=0;exitY=0.5;exitDx=0;exitDy=0;entryX=0.5;entryY=0;entryDx=0;entryDy=0;strokeColor=#A8201A;fontSize=20;fontColor=#143642;endArrow=open;startSize=14;endSize=14;sourcePerimeterSpacing=8;targetPerimeterSpacing=8;fillColor=#FAE5C7;" edge="1" parent="1" source="VCaF5FQ0tdgLMfJwGW-g-16" target="VCaF5FQ0tdgLMfJwGW-g-20">
          <mxGeometry relative="1" as="geometry" />
        </mxCell>
        <mxCell id="VCaF5FQ0tdgLMfJwGW-g-22" style="edgeStyle=none;curved=1;rounded=0;orthogonalLoop=1;jettySize=auto;html=1;exitX=1;exitY=0.5;exitDx=0;exitDy=0;entryX=0.5;entryY=0;entryDx=0;entryDy=0;strokeColor=#A8201A;fontSize=20;fontColor=#143642;endArrow=open;startSize=14;endSize=14;sourcePerimeterSpacing=8;targetPerimeterSpacing=8;fillColor=#FAE5C7;" edge="1" parent="1" source="VCaF5FQ0tdgLMfJwGW-g-16" target="VCaF5FQ0tdgLMfJwGW-g-19">
          <mxGeometry relative="1" as="geometry" />
        </mxCell>
        <mxCell id="VCaF5FQ0tdgLMfJwGW-g-23" style="edgeStyle=none;curved=1;rounded=0;orthogonalLoop=1;jettySize=auto;html=1;exitX=0.5;exitY=1;exitDx=0;exitDy=0;entryX=0.5;entryY=0;entryDx=0;entryDy=0;strokeColor=#A8201A;fontSize=20;fontColor=#143642;endArrow=open;startSize=14;endSize=14;sourcePerimeterSpacing=8;targetPerimeterSpacing=8;fillColor=#FAE5C7;" edge="1" parent="1" source="VCaF5FQ0tdgLMfJwGW-g-16" target="VCaF5FQ0tdgLMfJwGW-g-18">
          <mxGeometry relative="1" as="geometry" />
        </mxCell>
        <mxCell id="VCaF5FQ0tdgLMfJwGW-g-16" value="&lt;span style=&quot;color: rgb(75, 75, 75); font-family: Lato, sans-serif; font-size: 16px; text-align: justify; background-color: rgb(255, 255, 255);&quot;&gt;&lt;font style=&quot;vertical-align: inherit;&quot;&gt;&lt;font style=&quot;vertical-align: inherit;&quot;&gt;Los principales sistemas gestores de bases de datos relacionales ( &lt;/font&gt;&lt;/font&gt;&lt;/span&gt;&lt;span style=&quot;box-sizing: border-box; font-weight: 700; margin: 0px; padding: 0px; border: 0px; font-variant-numeric: inherit; font-variant-east-asian: inherit; font-stretch: inherit; font-size: 16px; line-height: inherit; font-family: Lato, sans-serif; vertical-align: initial; color: rgb(75, 75, 75); text-align: justify; background-color: rgb(255, 255, 255);&quot;&gt;&lt;font style=&quot;vertical-align: inherit;&quot;&gt;&lt;font style=&quot;vertical-align: inherit;&quot;&gt;SGBD SQL &lt;/font&gt;&lt;/font&gt;&lt;/span&gt;&lt;span style=&quot;color: rgb(75, 75, 75); font-family: Lato, sans-serif; font-size: 16px; text-align: justify; background-color: rgb(255, 255, 255);&quot;&gt;&lt;font style=&quot;vertical-align: inherit;&quot;&gt;&lt;font style=&quot;vertical-align: inherit;&quot;&gt;) actualmente son:&lt;/font&gt;&lt;/font&gt;&lt;/span&gt;" style="rounded=0;whiteSpace=wrap;html=1;hachureGap=4;strokeColor=#0F8B8D;fontSize=20;fontColor=#143642;fillColor=#FAE5C7;" vertex="1" parent="1">
          <mxGeometry x="170" y="-240" width="260" height="80" as="geometry" />
        </mxCell>
        <mxCell id="VCaF5FQ0tdgLMfJwGW-g-18" value="&lt;h3 style=&quot;box-sizing: border-box; margin: 0px 0px 25px; line-height: inherit; font-size: 19px; overflow-wrap: break-word; padding: 0px; border: 0px; font-variant-numeric: inherit; font-variant-east-asian: inherit; font-stretch: inherit; font-family: Lato, sans-serif; vertical-align: middle; color: rgb(68, 68, 68); background-color: rgb(255, 255, 255); text-align: justify;&quot;&gt;&lt;a style=&quot;box-sizing: border-box; color: rgb(139, 189, 191); background-color: transparent; margin: 0px; padding: 0px; border: 0px; font: inherit; vertical-align: initial; transition: all 0.2s ease 0s;&quot; rel=&quot;noopener noreferrer&quot; target=&quot;_blank&quot; href=&quot;https://mariadb.org/&quot;&gt;&lt;font style=&quot;vertical-align: inherit;&quot;&gt;&lt;font style=&quot;vertical-align: inherit;&quot;&gt;MariaDB&lt;/font&gt;&lt;/font&gt;&lt;/a&gt;&lt;/h3&gt;" style="rounded=0;whiteSpace=wrap;html=1;hachureGap=4;strokeColor=#0F8B8D;fontSize=20;fontColor=#143642;fillColor=#FAE5C7;" vertex="1" parent="1">
          <mxGeometry x="220" y="-110" width="160" height="80" as="geometry" />
        </mxCell>
        <mxCell id="VCaF5FQ0tdgLMfJwGW-g-19" value="&lt;h3 style=&quot;box-sizing: border-box; margin: 0px 0px 25px; line-height: inherit; font-size: 19px; overflow-wrap: break-word; padding: 0px; border: 0px; font-variant-numeric: inherit; font-variant-east-asian: inherit; font-stretch: inherit; font-family: Lato, sans-serif; vertical-align: middle; color: rgb(68, 68, 68); background-color: rgb(255, 255, 255); text-align: justify;&quot;&gt;&lt;a style=&quot;box-sizing: border-box; color: rgb(139, 189, 191); text-decoration-line: none; background-color: transparent; margin: 0px; padding: 0px; border: 0px; font: inherit; vertical-align: initial; transition: all 0.2s ease 0s;&quot; rel=&quot;noopener noreferrer&quot; target=&quot;_blank&quot; href=&quot;https://www.postgresql.org/&quot;&gt;PostgreSQL&lt;/a&gt;&lt;/h3&gt;" style="rounded=0;whiteSpace=wrap;html=1;hachureGap=4;strokeColor=#0F8B8D;fontSize=20;fontColor=#143642;fillColor=#FAE5C7;" vertex="1" parent="1">
          <mxGeometry x="660" y="-150" width="160" height="80" as="geometry" />
        </mxCell>
        <mxCell id="VCaF5FQ0tdgLMfJwGW-g-20" value="&lt;h3 style=&quot;box-sizing: border-box; margin: 0px 0px 25px; line-height: inherit; font-size: 22px; overflow-wrap: break-word; padding: 0px; border: 0px; font-variant-numeric: inherit; font-variant-east-asian: inherit; font-stretch: inherit; font-family: Lato, sans-serif; vertical-align: middle; color: rgb(68, 68, 68); background-color: rgb(255, 255, 255);&quot;&gt;&lt;a style=&quot;box-sizing: border-box; color: rgb(139, 189, 191); background-color: transparent; margin: 0px; padding: 0px; border: 0px; font-style: inherit; font-variant: inherit; font-weight: inherit; font-stretch: inherit; font-size: 22px; line-height: inherit; font-family: inherit; vertical-align: initial; transition: all 0.2s ease 0s;&quot; rel=&quot;noopener noreferrer&quot; target=&quot;_blank&quot; href=&quot;https://www.mysql.com/&quot;&gt;&lt;font style=&quot;vertical-align: inherit; font-size: 22px;&quot;&gt;&lt;font style=&quot;vertical-align: inherit; font-size: 22px;&quot;&gt;mysql&lt;/font&gt;&lt;/font&gt;&lt;/a&gt;&lt;/h3&gt;" style="rounded=0;whiteSpace=wrap;html=1;hachureGap=4;strokeColor=#0F8B8D;fontSize=22;fontColor=#143642;fillColor=#FAE5C7;align=center;" vertex="1" parent="1">
          <mxGeometry x="-210" y="-150" width="160" height="80" as="geometry" />
        </mxCell>
        <mxCell id="VCaF5FQ0tdgLMfJwGW-g-24" value="&lt;span style=&quot;color: rgb(75, 75, 75); font-family: Lato, sans-serif; font-size: 16px; text-align: justify; background-color: rgb(255, 255, 255);&quot;&gt;&lt;font style=&quot;vertical-align: inherit;&quot;&gt;&lt;font style=&quot;vertical-align: inherit;&quot;&gt;Se ofrece bajo la GNU GPL aunque también es posible adquirir una licencia para empresas que incorporenlo en productos privativos (Desde la compra por parte de Oracle se está orientando a este ámbito empresarial).&lt;/font&gt;&lt;/font&gt;&lt;/span&gt;" style="rounded=0;whiteSpace=wrap;html=1;hachureGap=4;strokeColor=#0F8B8D;fontSize=22;fontColor=#143642;fillColor=#FAE5C7;" vertex="1" parent="1">
          <mxGeometry x="-220" width="160" height="80" as="geometry" />
        </mxCell>
        <mxCell id="VCaF5FQ0tdgLMfJwGW-g-25" value="&lt;p style=&quot;box-sizing: border-box; margin: 0px 0px 20px; overflow-wrap: break-word; padding: 0px; border: 0px; font-variant-numeric: inherit; font-variant-east-asian: inherit; font-stretch: inherit; font-size: 16px; line-height: 22px; font-family: Lato, sans-serif; vertical-align: middle; color: rgb(75, 75, 75); background-color: rgb(255, 255, 255); text-align: justify;&quot;&gt;&lt;font style=&quot;vertical-align: inherit;&quot;&gt;&lt;font style=&quot;vertical-align: inherit;&quot;&gt;Las principales&amp;nbsp; &lt;/font&gt;&lt;/font&gt;&lt;span style=&quot;box-sizing: border-box; font-weight: 700; margin: 0px; padding: 0px; border: 0px; font-style: inherit; font-variant: inherit; font-stretch: inherit; font-size: inherit; line-height: inherit; font-family: inherit; vertical-align: initial;&quot;&gt;&lt;font style=&quot;vertical-align: inherit;&quot;&gt;&lt;font style=&quot;vertical-align: inherit;&quot;&gt;ventajas&lt;/font&gt;&lt;/font&gt;&lt;/span&gt;&amp;nbsp;&lt;font style=&quot;vertical-align: inherit;&quot;&gt;&lt;font style=&quot;vertical-align: inherit;&quot;&gt; de este Sistema Gestor de Bases de datos son:&lt;/font&gt;&lt;/font&gt;&lt;/p&gt;&lt;ul style=&quot;box-sizing: border-box; margin: 0px 0px 20px; overflow-wrap: break-word; padding: 0px 0px 0px 1em; border: 0px; font-variant-numeric: inherit; font-variant-east-asian: inherit; font-stretch: inherit; font-size: 16px; line-height: inherit; font-family: Lato, sans-serif; vertical-align: middle; list-style-position: initial; list-style-image: initial; color: rgb(75, 75, 75); background-color: rgb(255, 255, 255); text-align: justify;&quot;&gt;&lt;li style=&quot;box-sizing: border-box; margin: 0px; padding: 0px; border: 0px; font: inherit; vertical-align: middle;&quot;&gt;&lt;font style=&quot;vertical-align: inherit;&quot;&gt;&lt;font style=&quot;vertical-align: inherit;&quot;&gt;Facilidad de uso y gran rendimiento&lt;/font&gt;&lt;/font&gt;&lt;/li&gt;&lt;li style=&quot;box-sizing: border-box; margin: 0px; padding: 0px; border: 0px; font: inherit; vertical-align: middle;&quot;&gt;&lt;font style=&quot;vertical-align: inherit;&quot;&gt;&lt;font style=&quot;vertical-align: inherit;&quot;&gt;Facilidad para instalar y configurar&lt;/font&gt;&lt;/font&gt;&lt;/li&gt;&lt;li style=&quot;box-sizing: border-box; margin: 0px; padding: 0px; border: 0px; font: inherit; vertical-align: middle;&quot;&gt;&lt;font style=&quot;vertical-align: inherit;&quot;&gt;&lt;font style=&quot;vertical-align: inherit;&quot;&gt;Soporte multiplataforma&lt;/font&gt;&lt;/font&gt;&lt;/li&gt;&lt;li style=&quot;box-sizing: border-box; margin: 0px; padding: 0px; border: 0px; font: inherit; vertical-align: middle;&quot;&gt;&lt;font style=&quot;vertical-align: inherit;&quot;&gt;&lt;font style=&quot;vertical-align: inherit;&quot;&gt;Soporte SSL&lt;/font&gt;&lt;/font&gt;&lt;/li&gt;&lt;/ul&gt;" style="rounded=0;whiteSpace=wrap;html=1;hachureGap=4;strokeColor=#0F8B8D;fontSize=22;fontColor=#143642;fillColor=#FAE5C7;" vertex="1" parent="1">
          <mxGeometry x="-190" y="300" width="160" height="80" as="geometry" />
        </mxCell>
        <mxCell id="VCaF5FQ0tdgLMfJwGW-g-26" value="&lt;span style=&quot;color: rgb(75, 75, 75); font-family: Lato, sans-serif; font-size: 16px; text-align: justify; background-color: rgb(255, 255, 255);&quot;&gt;&lt;font style=&quot;vertical-align: inherit;&quot;&gt;&lt;font style=&quot;vertical-align: inherit;&quot;&gt;La principal&amp;nbsp; &lt;/font&gt;&lt;/font&gt;&lt;/span&gt;&lt;span style=&quot;box-sizing: border-box; font-weight: 700; margin: 0px; padding: 0px; border: 0px; font-variant-numeric: inherit; font-variant-east-asian: inherit; font-stretch: inherit; font-size: 16px; line-height: inherit; font-family: Lato, sans-serif; vertical-align: initial; color: rgb(75, 75, 75); text-align: justify; background-color: rgb(255, 255, 255);&quot;&gt;&lt;font style=&quot;vertical-align: inherit;&quot;&gt;&lt;font style=&quot;vertical-align: inherit;&quot;&gt;desventaja &lt;/font&gt;&lt;/font&gt;&lt;/span&gt;&lt;span style=&quot;color: rgb(75, 75, 75); font-family: Lato, sans-serif; font-size: 16px; text-align: justify; background-color: rgb(255, 255, 255);&quot;&gt;&amp;nbsp;&lt;font style=&quot;vertical-align: inherit;&quot;&gt;&lt;font style=&quot;vertical-align: inherit;&quot;&gt;es la escalabilidad, es decir, no trabaja de manera eficiente con bases de datos muy grandes que superan un tamaño determinado.&lt;/font&gt;&lt;/font&gt;&lt;/span&gt;" style="rounded=0;whiteSpace=wrap;html=1;hachureGap=4;strokeColor=#0F8B8D;fontSize=22;fontColor=#143642;fillColor=#FAE5C7;" vertex="1" parent="1">
          <mxGeometry x="-200" y="530" width="160" height="80" as="geometry" />
        </mxCell>
        <mxCell id="VCaF5FQ0tdgLMfJwGW-g-27" value="&lt;p style=&quot;box-sizing: border-box; margin: 0px 0px 20px; overflow-wrap: break-word; padding: 0px; border: 0px; font-variant-numeric: inherit; font-variant-east-asian: inherit; font-stretch: inherit; font-size: 16px; line-height: 22px; font-family: Lato, sans-serif; vertical-align: middle; color: rgb(75, 75, 75); background-color: rgb(255, 255, 255); text-align: justify;&quot;&gt;&lt;font style=&quot;vertical-align: inherit;&quot;&gt;&lt;font style=&quot;vertical-align: inherit;&quot;&gt;Este SGBD es una&amp;nbsp; &lt;/font&gt;&lt;/font&gt;&lt;span style=&quot;box-sizing: border-box; font-weight: 700; margin: 0px; padding: 0px; border: 0px; font-style: inherit; font-variant: inherit; font-stretch: inherit; font-size: inherit; line-height: inherit; font-family: inherit; vertical-align: initial;&quot;&gt;&lt;font style=&quot;vertical-align: inherit;&quot;&gt;&lt;font style=&quot;vertical-align: inherit;&quot;&gt;derivación de MySQL&lt;/font&gt;&lt;/font&gt;&lt;/span&gt;&amp;nbsp;&lt;font style=&quot;vertical-align: inherit;&quot;&gt;&lt;font style=&quot;vertical-align: inherit;&quot;&gt; que cuenta con la mayoría de características de este e incluye varias extensiones.&lt;/font&gt;&lt;/font&gt;&lt;/p&gt;&lt;p style=&quot;box-sizing: border-box; margin: 0px 0px 20px; overflow-wrap: break-word; padding: 0px; border: 0px; font-variant-numeric: inherit; font-variant-east-asian: inherit; font-stretch: inherit; font-size: 16px; line-height: 22px; font-family: Lato, sans-serif; vertical-align: middle; color: rgb(75, 75, 75); background-color: rgb(255, 255, 255); text-align: justify;&quot;&gt;&lt;font style=&quot;vertical-align: inherit;&quot;&gt;&lt;font style=&quot;vertical-align: inherit;&quot;&gt;Nace a partir de la adquisición de MySQL por parte de Oracle para seguir la filosofía &lt;/font&gt;&lt;span style=&quot;box-sizing: border-box; font-weight: 700; margin: 0px; padding: 0px; border: 0px; font-style: inherit; font-variant: inherit; font-stretch: inherit; font-size: inherit; line-height: inherit; font-family: inherit; vertical-align: initial;&quot;&gt;&lt;font style=&quot;vertical-align: inherit;&quot;&gt;Open Source&lt;/font&gt;&lt;/span&gt;&lt;font style=&quot;vertical-align: inherit;&quot;&gt; y tiene la ventaja de que es totalmente compatible con MySQL.&lt;/font&gt;&lt;/font&gt;&amp;nbsp;&lt;span style=&quot;box-sizing: border-box; font-weight: 700; margin: 0px; padding: 0px; border: 0px; font-style: inherit; font-variant: inherit; font-stretch: inherit; font-size: inherit; line-height: inherit; font-family: inherit; vertical-align: initial;&quot;&gt;&lt;font style=&quot;vertical-align: inherit;&quot;&gt;&lt;/font&gt;&lt;/span&gt;&amp;nbsp;&lt;font style=&quot;vertical-align: inherit;&quot;&gt;&lt;/font&gt;&lt;/p&gt;" style="rounded=0;whiteSpace=wrap;html=1;hachureGap=4;strokeColor=#0F8B8D;fontSize=22;fontColor=#143642;fillColor=#FAE5C7;" vertex="1" parent="1">
          <mxGeometry x="150" width="160" height="80" as="geometry" />
        </mxCell>
        <mxCell id="VCaF5FQ0tdgLMfJwGW-g-28" value="&lt;p style=&quot;box-sizing: border-box; margin: 0px 0px 20px; overflow-wrap: break-word; padding: 0px; border: 0px; font-variant-numeric: inherit; font-variant-east-asian: inherit; font-stretch: inherit; font-size: 16px; line-height: 22px; font-family: Lato, sans-serif; vertical-align: middle; color: rgb(75, 75, 75); background-color: rgb(255, 255, 255); text-align: justify;&quot;&gt;&lt;font style=&quot;vertical-align: inherit;&quot;&gt;&lt;font style=&quot;vertical-align: inherit;&quot;&gt;Entre las principales&amp;nbsp; &lt;/font&gt;&lt;/font&gt;&lt;span style=&quot;box-sizing: border-box; font-weight: 700; margin: 0px; padding: 0px; border: 0px; font-style: inherit; font-variant: inherit; font-stretch: inherit; font-size: inherit; line-height: inherit; font-family: inherit; vertical-align: initial;&quot;&gt;&lt;font style=&quot;vertical-align: inherit;&quot;&gt;&lt;font style=&quot;vertical-align: inherit;&quot;&gt;características&lt;/font&gt;&lt;/font&gt;&lt;/span&gt;&amp;nbsp;&lt;font style=&quot;vertical-align: inherit;&quot;&gt;&lt;font style=&quot;vertical-align: inherit;&quot;&gt; de este Sistema Gestor de Bases de datos se encuentran:&lt;/font&gt;&lt;/font&gt;&lt;/p&gt;&lt;ul style=&quot;box-sizing: border-box; margin: 0px 0px 20px; overflow-wrap: break-word; padding: 0px 0px 0px 1em; border: 0px; font-variant-numeric: inherit; font-variant-east-asian: inherit; font-stretch: inherit; font-size: 16px; line-height: inherit; font-family: Lato, sans-serif; vertical-align: middle; list-style-position: initial; list-style-image: initial; color: rgb(75, 75, 75); background-color: rgb(255, 255, 255); text-align: justify;&quot;&gt;&lt;li style=&quot;box-sizing: border-box; margin: 0px; padding: 0px; border: 0px; font: inherit; vertical-align: middle;&quot;&gt;&lt;font style=&quot;vertical-align: inherit;&quot;&gt;&lt;font style=&quot;vertical-align: inherit;&quot;&gt;Aumento de motores de almacenamiento&lt;/font&gt;&lt;/font&gt;&lt;/li&gt;&lt;li style=&quot;box-sizing: border-box; margin: 0px; padding: 0px; border: 0px; font: inherit; vertical-align: middle;&quot;&gt;&lt;font style=&quot;vertical-align: inherit;&quot;&gt;&lt;font style=&quot;vertical-align: inherit;&quot;&gt;gran escalabilidad&lt;/font&gt;&lt;/font&gt;&lt;/li&gt;&lt;li style=&quot;box-sizing: border-box; margin: 0px; padding: 0px; border: 0px; font: inherit; vertical-align: middle;&quot;&gt;&lt;font style=&quot;vertical-align: inherit;&quot;&gt;&lt;font style=&quot;vertical-align: inherit;&quot;&gt;Seguridad y rapidez en las transacciones&lt;/font&gt;&lt;/font&gt;&lt;/li&gt;&lt;li style=&quot;box-sizing: border-box; margin: 0px; padding: 0px; border: 0px; font: inherit; vertical-align: middle;&quot;&gt;&lt;font style=&quot;vertical-align: inherit;&quot;&gt;&lt;font style=&quot;vertical-align: inherit;&quot;&gt;Extensiones y nuevas características relacionadas con su aplicación para Bases de datos NoSQL.&lt;/font&gt;&lt;/font&gt;&lt;/li&gt;&lt;/ul&gt;" style="rounded=0;whiteSpace=wrap;html=1;hachureGap=4;strokeColor=#0F8B8D;fontSize=22;fontColor=#143642;fillColor=#FAE5C7;" vertex="1" parent="1">
          <mxGeometry x="170" y="300" width="160" height="80" as="geometry" />
        </mxCell>
        <mxCell id="VCaF5FQ0tdgLMfJwGW-g-29" value="&lt;span style=&quot;color: rgb(75, 75, 75); font-family: Lato, sans-serif; font-size: 16px; text-align: justify; background-color: rgb(255, 255, 255);&quot;&gt;&lt;font style=&quot;vertical-align: inherit;&quot;&gt;&lt;font style=&quot;vertical-align: inherit;&quot;&gt;No tiene desventajas muy aparentes salvo algunas pequeñas incompatibilidades en la migración de MariaDB y MySQL o pequeñas atrasos en la liberación de versiones estables.&lt;/font&gt;&lt;/font&gt;&lt;/span&gt;" style="rounded=0;whiteSpace=wrap;html=1;hachureGap=4;strokeColor=#0F8B8D;fontSize=22;fontColor=#143642;fillColor=#FAE5C7;" vertex="1" parent="1">
          <mxGeometry x="150" y="680" width="160" height="80" as="geometry" />
        </mxCell>
        <mxCell id="VCaF5FQ0tdgLMfJwGW-g-30" value="&lt;p style=&quot;box-sizing: border-box; margin: 0px 0px 20px; overflow-wrap: break-word; padding: 0px; border: 0px; font-variant-numeric: inherit; font-variant-east-asian: inherit; font-stretch: inherit; font-size: 16px; line-height: 22px; font-family: Lato, sans-serif; vertical-align: middle; color: rgb(75, 75, 75); background-color: rgb(255, 255, 255); text-align: justify;&quot;&gt;Este sistema gestor de base de datos relacional está&amp;nbsp;&lt;span style=&quot;box-sizing: border-box; font-weight: 700; margin: 0px; padding: 0px; border: 0px; font-style: inherit; font-variant: inherit; font-stretch: inherit; font-size: inherit; line-height: inherit; font-family: inherit; vertical-align: initial;&quot;&gt;orientado a objetos&lt;/span&gt;&amp;nbsp;y es libre, publicado bajo la licencia BSD.&lt;/p&gt;&lt;div&gt;&lt;br&gt;&lt;/div&gt;" style="rounded=0;whiteSpace=wrap;html=1;hachureGap=4;strokeColor=#0F8B8D;fontSize=22;fontColor=#143642;fillColor=#FAE5C7;" vertex="1" parent="1">
          <mxGeometry x="650" y="-40" width="160" height="80" as="geometry" />
        </mxCell>
        <mxCell id="VCaF5FQ0tdgLMfJwGW-g-31" value="&lt;p style=&quot;box-sizing: border-box; margin: 0px 0px 20px; overflow-wrap: break-word; padding: 0px; border: 0px; font-variant-numeric: inherit; font-variant-east-asian: inherit; font-stretch: inherit; font-size: 16px; line-height: 22px; font-family: Lato, sans-serif; vertical-align: middle; color: rgb(75, 75, 75); background-color: rgb(255, 255, 255); text-align: justify;&quot;&gt;Sus principales&amp;nbsp;&lt;span style=&quot;box-sizing: border-box; font-weight: 700; margin: 0px; padding: 0px; border: 0px; font-style: inherit; font-variant: inherit; font-stretch: inherit; font-size: inherit; line-height: inherit; font-family: inherit; vertical-align: initial;&quot;&gt;características&lt;/span&gt;&amp;nbsp;son:&lt;/p&gt;&lt;ul style=&quot;box-sizing: border-box; margin: 0px 0px 20px; overflow-wrap: break-word; padding: 0px 0px 0px 1em; border: 0px; font-variant-numeric: inherit; font-variant-east-asian: inherit; font-stretch: inherit; font-size: 16px; line-height: inherit; font-family: Lato, sans-serif; vertical-align: middle; list-style-position: initial; list-style-image: initial; color: rgb(75, 75, 75); background-color: rgb(255, 255, 255); text-align: justify;&quot;&gt;&lt;li style=&quot;box-sizing: border-box; margin: 0px; padding: 0px; border: 0px; font: inherit; vertical-align: middle;&quot;&gt;Control de Concurrencias multiversión (MVCC)&lt;/li&gt;&lt;li style=&quot;box-sizing: border-box; margin: 0px; padding: 0px; border: 0px; font: inherit; vertical-align: middle;&quot;&gt;Flexibilidad en cuanto a lenguajes de programación&lt;/li&gt;&lt;li style=&quot;box-sizing: border-box; margin: 0px; padding: 0px; border: 0px; font: inherit; vertical-align: middle;&quot;&gt;Multiplataforma&lt;/li&gt;&lt;li style=&quot;box-sizing: border-box; margin: 0px; padding: 0px; border: 0px; font: inherit; vertical-align: middle;&quot;&gt;Dispone de una herramienta (pgAdmin, https://www.pgadmin.org/) muy fácil e intuitiva para la administración de las bases de datos.&lt;/li&gt;&lt;li style=&quot;box-sizing: border-box; margin: 0px; padding: 0px; border: 0px; font: inherit; vertical-align: middle;&quot;&gt;Robustez, Eficiencia y Estabilidad.&lt;/li&gt;&lt;/ul&gt;" style="rounded=0;whiteSpace=wrap;html=1;hachureGap=4;strokeColor=#0F8B8D;fontSize=22;fontColor=#143642;fillColor=#FAE5C7;" vertex="1" parent="1">
          <mxGeometry x="700" y="100" width="160" height="80" as="geometry" />
        </mxCell>
        <mxCell id="VCaF5FQ0tdgLMfJwGW-g-32" value="&lt;span style=&quot;color: rgb(75, 75, 75); font-family: Lato, sans-serif; font-size: 16px; text-align: justify; background-color: rgb(255, 255, 255);&quot;&gt;La principal&amp;nbsp;&lt;/span&gt;&lt;span style=&quot;box-sizing: border-box; font-weight: 700; margin: 0px; padding: 0px; border: 0px; font-variant-numeric: inherit; font-variant-east-asian: inherit; font-stretch: inherit; font-size: 16px; line-height: inherit; font-family: Lato, sans-serif; vertical-align: initial; color: rgb(75, 75, 75); text-align: justify; background-color: rgb(255, 255, 255);&quot;&gt;desventaja&lt;/span&gt;&lt;span style=&quot;color: rgb(75, 75, 75); font-family: Lato, sans-serif; font-size: 16px; text-align: justify; background-color: rgb(255, 255, 255);&quot;&gt;&amp;nbsp;es la lentitud para la administración de bases de datos pequeñas ya que está optimizado para gestionar grandes volúmenes de datos.&lt;/span&gt;" style="rounded=0;whiteSpace=wrap;html=1;hachureGap=4;strokeColor=#0F8B8D;fontSize=22;fontColor=#143642;fillColor=#FAE5C7;" vertex="1" parent="1">
          <mxGeometry x="910" y="-50" width="160" height="80" as="geometry" />
        </mxCell>
      </root>
    </mxGraphModel>
  </diagram>
</mxfile>
